HIERARCHY
ROOT SpineBase
{
  OFFSET 0.000000 0.000000 0.000000
  CHANNELS 6 Xposition Yposition Zposition Zrotation Xrotation Yrotation
  JOINT SpineMid
  {
    OFFSET 0.000000 31.909438 0.000000
    CHANNELS 3 Zrotation Xrotation Yrotation
    JOINT SpineShoulder
    {
      OFFSET 0.052495 23.658494 -0.793123
      CHANNELS 3 Zrotation Xrotation Yrotation
      JOINT Neck
      {
        OFFSET 0.063214 7.815682 -0.597341
        CHANNELS 3 Zrotation Xrotation Yrotation
        JOINT Head
        {
          OFFSET -5.300973 14.133301 0.234664
          CHANNELS 3 Zrotation Xrotation Yrotation
          End Site
          {
            OFFSET 0 0 0
          }
        }
      }
      JOINT ShoulderLeft
      {
        OFFSET -16.538135 -6.503942 8.076056
        CHANNELS 3 Zrotation Xrotation Yrotation
        JOINT ElbowLeft
        {
          OFFSET -1.117816 -27.012754 3.278217
          CHANNELS 3 Zrotation Xrotation Yrotation
          JOINT WristLeft
          {
            OFFSET 0.365751 -23.756033 -3.871446
            CHANNELS 3 Zrotation Xrotation Yrotation
            JOINT HandLeft
            {
              OFFSET 0.249798 -6.764178 -2.252842
              CHANNELS 3 Zrotation Xrotation Yrotation
              JOINT HandTipLeft
              {
                OFFSET 0.842497 -6.271660 -1.255966
                CHANNELS 3 Zrotation Xrotation Yrotation
                End Site
                {
                  OFFSET 0 0 0
                }
              }
              JOINT ThumbLeft
              {
                OFFSET -2.504585 -1.562799 -0.936533
                CHANNELS 3 Zrotation Xrotation Yrotation
                End Site
                {
                  OFFSET 0 0 0
                }
              }
            }
          }
        }
      }
      JOINT ShoulderRight
      {
        OFFSET 14.366082 -3.915119 -8.992035
        CHANNELS 3 Zrotation Xrotation Yrotation
        JOINT ElbowRight
        {
          OFFSET 7.817745 -24.508092 -2.299108
          CHANNELS 3 Zrotation Xrotation Yrotation
          JOINT WristRight
          {
            OFFSET -1.877395 -22.059917 -5.610173
            CHANNELS 3 Zrotation Xrotation Yrotation
            JOINT HandRight
            {
              OFFSET -2.634532 -8.849556 -1.136862
              CHANNELS 3 Zrotation Xrotation Yrotation
              JOINT HandTipRight
              {
                OFFSET -0.945259 -7.124228 -2.394492
                CHANNELS 3 Zrotation Xrotation Yrotation
                End Site
                {
                  OFFSET 0 0 0
                }
              }
              JOINT ThumbRight
              {
                OFFSET 2.706697 -2.249514 -2.561756
                CHANNELS 3 Zrotation Xrotation Yrotation
                End Site
                {
                  OFFSET 0 0 0
                }
              }
            }
          }
        }
      }
    }
  }
  JOINT HipLeft
  {
    OFFSET -6.201215 0.066072 -0.716844
    CHANNELS 3 Zrotation Xrotation Yrotation
    JOINT KneeLeft
    {
      OFFSET 4.520949 -34.941587 3.949518
      CHANNELS 3 Zrotation Xrotation Yrotation
      JOINT AnkleLeft
      {
        OFFSET 7.376631 -37.013053 7.039359
        CHANNELS 3 Zrotation Xrotation Yrotation
        JOINT FootLeft
        {
          OFFSET 0.743678 -8.264713 -6.217658
          CHANNELS 3 Zrotation Xrotation Yrotation
          End Site
          {
            OFFSET 0 0 0
          }
        }
      }
    }
  }
  JOINT HipRight
  {
    OFFSET 7.066784 1.566509 -6.701647
    CHANNELS 3 Zrotation Xrotation Yrotation
    JOINT KneeRight
    {
      OFFSET 8.809047 -32.910135 0.522987
      CHANNELS 3 Zrotation Xrotation Yrotation
      JOINT AnkleRight
      {
        OFFSET 4.029608 -37.762122 8.130853
        CHANNELS 3 Zrotation Xrotation Yrotation
        JOINT FootRight
        {
          OFFSET -5.136841 -7.737854 -0.187506
          CHANNELS 3 Zrotation Xrotation Yrotation
          End Site
          {
            OFFSET 0 0 0
          }
        }
      }
    }
  }
}
MOTION
Frames: 12
Frame Time: 0.033333
-41.298779 80.435044 349.887420 -0.000000 0.000000 24.278729 0.000000 0.000000 -24.278729 -0.000000 0.000000 0.000000 -0.000000 0.000000 0.000000 0.000000 0.000000 0.000000 -0.000000 0.000000 0.000000 -0.000000 0.000000 0.000000 -0.000000 0.000000 0.000000 -0.000000 0.000000 0.000000 0.000000 0.000000 0.000000 0.000000 0.000000 0.000000 -0.000000 0.000000 0.000000 -0.000000 0.000000 0.000000 -0.000000 0.000000 0.000000 -0.000000 0.000000 0.000000 0.000000 0.000000 0.000000 0.000000 0.000000 0.000000 0.000000 0.000000 -24.278729 -0.000000 0.000000 0.000000 -0.000000 0.000000 0.000000 0.000000 0.000000 0.000000 0.000000 0.000000 -24.278729 -0.000000 0.000000 0.000000 -0.000000 0.000000 0.000000 0.000000 0.000000 0.000000
-41.288756 80.437188 349.835415 -0.034280 0.054662 24.139758 0.008927 -0.063902 -24.139737 -0.000000 0.000000 0.000000 -0.000000 0.000000 0.000000 0.000000 0.000000 0.000000 -0.000000 0.000000 0.000000 -0.000000 0.000000 0.000000 0.183122 -1.801914 -0.125308 0.794859 1.917064 -0.081834 0.000000 0.000000 0.000000 0.000000 0.000000 0.000000 -0.000000 0.000000 0.000000 -0.000000 0.000000 0.000000 -0.000000 0.000000 0.000000 0.606120 0.729140 -0.303887 0.000000 0.000000 0.000000 0.000000 0.000000 0.000000 0.008927 -0.063902 -24.139737 -0.000000 0.000000 0.000000 -0.000000 0.000000 0.000000 0.000000 0.000000 0.000000 0.008927 -0.063902 -24.139737 -0.000000 0.000000 0.000000 2.380206 3.945250 -2.795473 0.000000 0.000000 0.000000
-41.280592 80.438556 349.800541 -0.065445 0.094901 24.065836 0.021057 -0.113340 -24.065761 -0.000000 0.000000 0.000000 -0.000000 0.000000 0.000000 0.000000 0.000000 0.000000 -0.000000 0.000000 0.000000 -0.000000 0.000000 0.000000 0.358570 -3.443573 -0.238210 1.448684 3.822912 -0.168552 0.000000 0.000000 0.000000 0.000000 0.000000 0.000000 -0.000000 0.000000 0.000000 -0.000000 0.000000 0.000000 -0.000000 0.000000 0.000000 1.115442 1.277112 -0.555440 0.000000 0.000000 0.000000 0.000000 0.000000 0.000000 0.021057 -0.113340 -24.065761 -0.000000 0.000000 0.000000 0.622677 0.714556 -0.405933 0.000000 0.000000 0.000000 0.021057 -0.113340 -24.065761 -0.000000 0.000000 0.000000 4.726248 7.407737 -5.482797 0.000000 0.000000 0.000000
-41.274287 80.439150 349.782799 -0.093498 0.120721 24.057102 0.036165 -0.148349 -24.056957 -0.000000 0.000000 0.000000 -0.000000 0.000000 0.000000 0.000000 0.000000 0.000000 -0.000000 0.000000 0.000000 -0.000000 0.000000 0.000000 0.525257 -4.899655 -0.338283 1.978974 5.686229 -0.249381 0.000000 0.000000 0.000000 0.000000 0.000000 0.000000 -0.000000 0.000000 0.000000 -0.000000 0.000000 0.000000 -0.000000 0.000000 0.000000 1.522964 1.641319 -0.749215 0.000000 0.000000 0.000000 0.000000 0.000000 0.000000 0.036165 -0.148349 -24.056957 -0.000000 0.000000 0.000000 0.664139 0.824278 -0.427712 0.000000 0.000000 0.000000 0.036165 -0.148349 -24.056957 -0.000000 0.000000 0.000000 6.939384 10.332855 -7.965575 0.000000 0.000000 0.000000
-41.269841 80.438970 349.782189 -0.118439 0.132122 24.113574 0.054126 -0.168980 -24.113358 -0.000000 0.000000 0.000000 -0.000000 0.000000 0.000000 0.000000 0.000000 0.000000 -0.000000 0.000000 0.000000 -0.000000 0.000000 0.000000 0.682199 -6.149014 -0.425383 2.399408 7.482440 -0.314352 0.000000 0.000000 0.000000 0.000000 0.000000 0.000000 -0.000000 0.000000 0.000000 -0.000000 0.000000 0.000000 0.317567 -0.986888 0.256239 1.521001 2.800108 -1.163566 0.000000 0.000000 0.000000 0.000000 0.000000 0.000000 0.054126 -0.168980 -24.113358 -0.000000 0.000000 0.000000 0.526195 0.771420 -0.328195 0.000000 0.000000 0.000000 0.054126 -0.168980 -24.113358 -0.000000 0.000000 0.000000 8.932991 12.711296 -10.161303 0.000000 0.000000 0.000000
-41.267254 80.438015 349.798710 -0.140269 0.129106 24.235141 0.074912 -0.175306 -24.234868 -0.000000 0.000000 0.000000 -0.000000 0.000000 0.000000 0.000000 0.000000 0.000000 -0.000000 0.000000 0.000000 -0.000000 0.000000 0.000000 0.828512 -7.175170 -0.499618 2.720216 9.193794 -0.354458 0.000000 0.000000 0.000000 0.000000 0.000000 0.000000 -0.000000 0.000000 0.000000 -0.000000 0.000000 0.000000 0.462308 -1.296601 0.332740 1.576338 3.100707 -1.316852 0.000000 0.000000 0.000000 0.000000 0.000000 0.000000 0.074912 -0.175306 -24.234868 -0.000000 0.000000 0.000000 -0.000000 0.000000 0.000000 0.000000 0.000000 0.000000 0.074912 -0.175306 -24.234868 -0.000000 0.000000 0.000000 10.639043 14.564602 -12.006707 0.000000 0.000000 0.000000
-41.274395 80.436927 349.866707 -0.166872 0.093434 24.554137 0.112955 -0.154328 -24.553849 -0.000000 0.000000 0.000000 -0.000000 0.000000 0.000000 0.000000 0.000000 0.000000 -0.000000 0.000000 0.000000 -0.339162 0.907431 0.071840 1.031717 -9.559483 -0.569732 4.957740 13.735685 -0.932357 0.000000 0.000000 0.000000 0.000000 0.000000 0.000000 -0.094714 -0.824786 -0.255136 0.091050 0.825198 0.253798 0.771578 -2.178544 0.566699 1.268520 2.966587 -1.410064 0.000000 0.000000 0.000000 0.000000 0.000000 0.000000 0.112955 -0.154328 -24.553849 -0.000000 0.000000 0.000000 -0.000000 0.000000 0.000000 0.000000 0.000000 0.000000 0.112955 -0.154328 -24.553849 -0.000000 0.000000 0.000000 13.029370 16.693074 -14.365585 0.000000 0.000000 0.000000
-41.276149 80.435076 349.928746 -0.177352 0.066514 24.858264 0.132960 -0.134905 -24.858005 -0.000000 0.000000 0.000000 0.195457 0.751602 0.277172 0.000000 0.000000 0.000000 -0.000000 0.000000 0.000000 -0.396197 0.986393 0.083053 1.079631 -9.557210 -0.574059 4.200003 14.464815 -0.562684 0.000000 0.000000 0.000000 0.000000 0.000000 0.000000 -0.007735 -1.049531 -0.334434 -0.325390 2.035097 0.340768 1.263057 -3.225412 0.588099 0.926750 3.227056 -1.366886 0.000000 0.000000 0.000000 0.000000 0.000000 0.000000 0.132960 -0.134905 -24.858005 -0.000000 0.000000 0.000000 -1.012717 -0.537558 0.711848 0.000000 0.000000 0.000000 0.132960 -0.134905 -24.858005 -0.000000 0.000000 0.000000 14.138951 17.056220 -14.982503 0.000000 0.000000 0.000000
-41.272882 80.434508 349.976357 -0.184270 0.030308 25.104451 0.154005 -0.105625 -25.104261 -0.000000 0.000000 0.000000 0.116058 0.869015 0.322976 0.000000 0.000000 0.000000 -0.000000 0.000000 0.000000 -0.485482 0.892972 0.096534 1.524609 -8.850377 -0.657888 3.627655 14.116790 -0.294126 0.000000 0.000000 0.000000 0.000000 0.000000 0.000000 0.083965 -1.278769 -0.415202 -0.501747 2.460641 0.431218 1.440736 -3.248566 0.526931 0.386167 3.764488 -1.228279 0.000000 0.000000 0.000000 0.000000 0.000000 0.000000 0.154005 -0.105625 -25.104261 -0.000000 0.000000 0.000000 -1.918559 -1.139962 1.333757 0.000000 0.000000 0.000000 0.154005 -0.105625 -25.104261 -0.000000 0.000000 0.000000 13.690769 16.313265 -14.224795 0.000000 0.000000 0.000000
-41.260903 80.433343 350.005748 -0.186912 -0.009893 25.262504 0.173258 -0.070821 -25.262414 -0.000000 0.000000 0.000000 0.079713 0.978674 0.364927 0.000000 0.000000 0.000000 -0.000000 0.000000 0.000000 -0.611829 0.672697 0.113558 2.038002 -7.994343 -0.762130 2.186634 10.930011 0.013423 0.000000 0.000000 0.000000 0.000000 0.000000 0.000000 0.174752 -1.511156 -0.496524 -0.716860 2.872616 0.536410 1.649776 -3.366232 0.490061 0.288853 3.599657 -1.179434 0.000000 0.000000 0.000000 0.000000 0.000000 0.000000 0.173258 -0.070821 -25.262414 -0.000000 0.000000 0.000000 -3.022719 -1.451832 2.130733 0.000000 0.000000 0.000000 0.173258 -0.070821 -25.262414 -0.000000 0.000000 0.000000 12.496675 16.302912 -13.895594 0.000000 0.000000 0.000000
-41.241981 80.431945 350.019456 -0.183434 -0.051110 25.373286 0.187640 -0.032424 -25.373315 -0.000000 0.000000 0.000000 0.095990 1.055306 0.393161 0.000000 0.000000 0.000000 -0.000000 0.000000 0.000000 -0.782691 0.300606 0.134193 2.447790 -7.476636 -0.856839 0.362271 8.923293 0.455975 0.000000 0.000000 0.000000 0.000000 0.000000 0.000000 0.251899 -1.677391 -0.555415 -0.886837 3.139743 0.617142 1.857891 -3.249151 0.401485 0.569495 3.163819 -1.217485 0.000000 0.000000 0.000000 0.000000 0.000000 0.000000 0.187640 -0.032424 -25.373315 -0.000000 0.000000 0.000000 -3.627273 -1.979673 2.528582 0.000000 0.000000 0.000000 0.187640 -0.032424 -25.373315 -0.000000 0.000000 0.000000 9.359320 14.053831 -11.306018 0.000000 0.000000 0.000000
-41.222937 80.428883 350.054743 -0.184803 -0.092568 25.518874 0.206653 0.003922 -25.519030 -0.000000 0.000000 0.000000 0.166968 1.120753 0.415672 0.000000 0.000000 0.000000 -0.000000 0.000000 0.000000 -0.839030 0.232558 0.141989 3.249303 -7.422401 -1.070197 -0.819038 10.462536 1.069172 0.000000 0.000000 0.000000 0.000000 0.000000 0.000000 0.326374 -1.752416 -0.584969 -0.963291 3.128632 0.656983 2.045521 -3.320122 0.423948 0.856368 3.534054 -1.452414 0.000000 0.000000 0.000000 0.000000 0.000000 0.000000 0.206653 0.003922 -25.519030 -0.000000 0.000000 0.000000 -4.348260 -2.757938 2.983453 0.000000 0.000000 0.000000 0.206653 0.003922 -25.519030 -0.000000 0.000000 0.000000 9.078329 14.138491 -11.309541 0.000000 0.000000 0.000000
